<svg xmlns="http://www.w3.org/2000/svg" height="40" viewBox="0 96 960 960" width="40"><path d="m779.833 890.167-251.766-252q-29.471 27.051-69.101 40.942Q419.335 693 382.158 693q-92.061 0-155.193-63.163-63.132-63.163-63.132-154.5t62.708-154.67q62.708-63.334 154.348-63.334 91.641 0 155.459 63.22 63.819 63.22 63.819 154.498 0 40.616-15.334 79.949-15.333 39.333-40.166 66.89l252 250.777-16.834 17.5ZM382 669.833q81.889 0 138.445-55.931Q577 557.971 577 475.069t-56.555-138.736Q463.889 280.5 381.583 280.5q-82.305 0-138.444 55.931Q187 392.363 187 475.265T243.208 614Q299.417 669.833 382 669.833Z"/></svg>